# xmcd
#
# Track frame offsets: 
#        150
#        25140
#        50551
#        70929
#        94307
#        121804
#        144598
#        165888
#        183402
#        216773
#
# Disc length: 3119 seconds
#
# Revision: 0
# Processed by: cddbd v1.5.2PL0 Copyright (c) Steve Scherf et al.
# Submitted via: ExactAudioCopy v0.95b4
#
DISCID=870c2d0a
DTITLE=Big Mike Griffin - Two Lane Road
DYEAR=2004
DGENRE=Blues
TTITLE0=Two Lane Road
TTITLE1=She's Fine
TTITLE2=To Meet The Blues
TTITLE3=High Heeled
TTITLE4=Back Door Man
TTITLE5=Red Headed Woman
TTITLE6=It Hurts Me Too
TTITLE7=The 62
TTITLE8=King Bee
TTITLE9=Pack It Up
EXTD=
EXTT0=
EXTT1=
EXTT2=
EXTT3=
EXTT4=
EXTT5=
EXTT6=
EXTT7=
EXTT8=
EXTT9=
PLAYORDER=
